<?xml version="1.0" standalone="no"?>
<!DOCTYPE svg PUBLIC "-//W3C//DTD SVG 20010904//EN"
 "http://www.w3.org/TR/2001/REC-SVG-20010904/DTD/svg10.dtd">
<svg version="1.0" xmlns="http://www.w3.org/2000/svg"
 width="492.000000pt" height="492.000000pt" viewBox="0 0 492.000000 492.000000"
 preserveAspectRatio="xMidYMid meet">
<metadata>
Created by potrace 1.11, written by Peter Selinger 2001-2013
</metadata>
<g transform="translate(0.000000,492.000000) scale(0.100000,-0.100000)"
fill="#000000" stroke="none">
<path d="M3357 4900 c-27 -5 -237 -77 -467 -161 l-419 -153 167 -61 167 -60
-1015 -5 -1015 -5 -58 -23 c-79 -32 -168 -116 -207 -195 -37 -75 -50 -149 -50
-283 l0 -100 -67 -24 c-198 -68 -279 -128 -336 -248 -29 -61 -32 -75 -32 -167
l0 -100 155 -422 c85 -233 157 -419 161 -415 3 4 31 75 60 157 l54 150 5
-1000 c6 -1041 5 -1026 47 -1110 45 -89 156 -180 250 -205 26 -7 108 -15 182
-19 l133 -6 33 -91 c18 -49 44 -113 58 -140 32 -64 112 -138 185 -172 50 -23
70 -27 157 -27 l100 0 422 154 c232 85 420 157 418 161 -2 4 -72 31 -155 61
l-151 54 1003 5 c930 5 1006 6 1048 23 142 56 238 163 270 299 5 24 10 98 10
164 0 107 2 123 18 129 9 4 60 22 112 41 52 19 119 51 148 71 120 82 182 228
161 381 -6 43 -298 874 -313 889 -1 1 -29 -72 -62 -162 l-59 -165 -5 1013 c-5
1006 -5 1012 -26 1064 -31 75 -86 145 -146 186 -86 59 -126 70 -288 75 l-146
4 -42 117 c-46 126 -90 194 -159 247 -80 61 -205 91 -306 74z m-731 -1325 c55
-16 110 -63 130 -112 48 -114 -30 -310 -324 -818 -3 -5 20 19 53 55 109 121
500 506 575 567 146 118 264 183 330 183 81 0 180 -168 180 -303 -1 -126 -56
-235 -261 -517 -328 -450 -468 -699 -457 -812 3 -29 7 -33 35 -36 56 -6 148
55 323 212 100 90 125 101 160 66 17 -17 20 -33 20 -104 l0 -84 -134 -130
c-251 -242 -414 -365 -535 -402 -76 -24 -105 -25 -162 -5 -55 20 -106 67 -132
125 -87 186 92 624 493 1205 53 77 107 158 120 180 l24 39 -48 -34 c-114 -82
-391 -367 -572 -590 -42 -52 -170 -217 -284 -365 -115 -149 -223 -285 -241
-303 -67 -66 -142 -50 -234 50 -62 66 -75 106 -52 160 8 20 58 104 111 187
296 465 606 1024 606 1093 0 15 -10 14 -87 -13 -160 -57 -337 -139 -545 -256
-236 -131 -268 -141 -317 -97 -67 60 -45 186 58 341 105 157 243 287 414 392
82 50 116 53 149 12 l23 -30 81 38 c245 116 375 143 500 106z"/>
</g>
</svg>
