<svg fill="#828282" xmlns="http://www.w3.org/2000/svg">
  <path d="M11.6514 0.0692369C11.4483 0.176259 11.3092 0.373893 11.2558 0.630549C11.1917 0.956757 11.2558 0.967289 11.983 0.742715C12.3464 0.63055 12.6618 0.51814 12.6885 0.491446C12.7632 0.421894 12.5602 0.165237 12.341 0.0584604C12.111 -0.06448 11.8865 -0.0590912 11.6514 0.0692369Z" />
  <path d="M17.2378 0.315022C13.2765 0.544985 8.72723 2.17015 6.04875 4.32454C4.77649 5.34553 3.78195 6.65012 3.41852 7.78328C3.31688 8.08794 3.30096 8.23757 3.32227 8.69211C3.34896 9.34428 3.46652 9.65432 3.77142 9.88428C3.95852 10.0285 4.00652 10.0393 4.42898 10.0393C4.81396 10.0339 4.94743 10.0126 5.23078 9.88428C5.66377 9.69718 6.17169 9.38714 6.81309 8.92207C7.26224 8.59072 7.32101 8.5317 7.32101 8.38745C7.32101 8.09871 7.48142 7.54279 7.67392 7.14188C7.85024 6.76767 8.44903 5.9497 8.54527 5.9497C8.57197 5.9497 8.54527 6.12603 8.49189 6.33469C8.32609 6.96555 8.17645 7.92238 8.16053 8.409L8.14976 8.86329L8.47058 8.93284C8.65768 8.9757 9.16022 9.01293 9.67329 9.01293C10.5126 9.0237 10.5767 9.01831 10.9722 8.87407C11.8544 8.56402 12.4637 8.0081 12.9341 7.07796L13.1051 6.74123L13.0568 5.42611C13.0088 4.22315 13.0142 3.95058 13.0781 4.1056C13.0889 4.13229 13.3828 4.62944 13.7249 5.20153L14.3504 6.24408L14.7246 6.44196C15.8739 7.05666 16.9537 7.1049 18.0391 6.59698C18.6859 6.29232 19.723 5.46896 19.723 5.26594C19.723 5.11631 18.9585 4.22879 18.3332 3.63539C17.9698 3.29865 17.8094 3.11693 17.8736 3.11693C18.0607 3.11693 18.9053 3.43237 19.2421 3.63025C19.4346 3.73727 19.7605 3.99907 19.9638 4.20748L20.338 4.58708H21.4072C22.7703 4.58169 23.2837 4.46952 23.6951 4.08454C23.9251 3.87613 24 3.68902 24 3.3469C24 2.98885 23.893 2.72142 23.5616 2.25635C22.931 1.35291 21.3005 0.63119 19.3758 0.396085C18.8735 0.330941 17.6975 0.288328 17.2378 0.315022Z" />
  <path d="M14.0355 8.20009C13.7467 8.45136 13.7413 8.61177 13.9926 9.44027C16.1791 16.5826 18.0234 22.5753 18.0663 22.6715C18.093 22.7357 18.1946 22.8373 18.2909 22.8961C18.74 23.1687 19.2959 22.8746 19.2959 22.3669C19.2959 22.2814 18.7292 20.3621 18.0345 18.1009C17.3448 15.8449 16.4039 12.7817 15.9496 11.2956C15.4953 9.80958 15.0942 8.53193 15.0621 8.44621C14.896 8.02376 14.3776 7.89543 14.0355 8.20009Z" />
  <path d="M0.280603 10.9961C-0.179077 11.2045 -0.10977 11.5467 0.756445 13.3803C1.38192 14.6954 2.39753 16.358 3.1675 17.3148C4.18849 18.5766 5.33267 19.5496 6.46068 20.116C6.70656 20.2389 6.7815 20.2977 6.72787 20.3298C6.68501 20.3514 5.49822 20.7094 4.0871 21.1316C2.4563 21.6131 1.47792 21.9337 1.40862 21.9981C1.09318 22.2814 1.32315 22.8481 1.74536 22.8427C1.79874 22.8373 3.34382 22.3884 5.18279 21.8377C8.34764 20.886 8.53989 20.838 8.79116 20.8808C9.44872 20.993 10.9135 20.9129 11.571 20.7258C11.6565 20.7045 11.9719 20.9183 12.9075 21.6452C13.5863 22.169 14.2172 22.6502 14.3188 22.7198C14.5701 22.8907 14.7785 22.8802 14.971 22.6877C15.1368 22.5219 15.1689 22.3456 15.0672 22.1372C15.0405 22.0676 14.5326 21.6454 13.9446 21.1963C13.362 20.742 12.8808 20.357 12.8808 20.3408C12.8808 20.3193 13.1159 20.1858 13.4046 20.0416C13.998 19.7474 14.8694 19.1861 15.0939 18.951C15.4094 18.6143 15.297 18.0689 14.8747 17.8926C14.6289 17.7855 14.431 17.823 14.1476 18.0317C13.9818 18.1492 13.5542 18.2988 12.5438 18.6037C11.3357 18.9672 11.1486 19.0046 11.0523 18.9459C10.6142 18.6728 1.37115 11.472 1.31237 11.3542C1.11449 10.98 0.665342 10.825 0.280603 10.9961ZM6.18786 16.4542C8.24601 18.0419 9.91403 19.3571 9.89787 19.373C9.7857 19.48 9.20284 19.5868 8.93026 19.5547C7.11261 19.3247 5.18817 17.9403 3.65926 15.7592C3.02839 14.8612 2.19989 13.4283 2.3603 13.5194C2.4083 13.546 4.12947 14.8666 6.18786 16.4542Z" />
</svg>
