<svg viewBox="0 0 254 228" fill="#828282" xmlns="http://www.w3.org/2000/svg">
  <path d="M252.983 5.32895C253.036 4.92844 253.039 4.53073 252.977 4.13862C252.969 4.0798 252.974 4.02378 252.963 3.96496C252.871 3.50843 252.689 3.07711 252.451 2.671C252.425 2.62618 252.423 2.57857 252.397 2.53376C252.355 2.46654 252.288 2.43293 252.243 2.36851C252.148 2.23407 252.075 2.08283 251.96 1.95959C251.818 1.80275 251.644 1.68792 251.484 1.55628C251.398 1.48626 251.322 1.40503 251.232 1.34342C250.857 1.08294 250.448 0.884085 250.011 0.758049C249.933 0.735642 249.854 0.732842 249.776 0.716037C249.406 0.632013 249.028 0.601205 248.644 0.62081C248.516 0.626412 248.395 0.637615 248.266 0.65442C248.157 0.671225 248.045 0.660021 247.936 0.682427L4.26616 55.1748C2.55487 55.5585 1.2609 56.9645 1.02003 58.701C0.781961 60.4375 1.64741 62.1432 3.19065 62.9722L69.0739 98.4332L89.5953 163.86C89.6177 163.93 89.6653 163.98 89.6906 164.047C89.7494 164.204 89.8362 164.344 89.9146 164.496C90.0799 164.815 90.2703 165.106 90.5056 165.369C90.5672 165.439 90.5896 165.529 90.6568 165.594C90.7184 165.652 90.7969 165.672 90.8613 165.728C91.1386 165.969 91.4411 166.162 91.7715 166.325C91.9032 166.389 92.018 166.473 92.1524 166.521C92.6118 166.691 93.0935 166.801 93.6005 166.801C93.6313 166.801 93.6621 166.801 93.6929 166.801C94.1942 166.789 94.6704 166.677 95.1185 166.501C95.2333 166.456 95.3286 166.378 95.4378 166.325C95.7935 166.148 96.1212 165.935 96.4153 165.666C96.4713 165.616 96.5441 165.599 96.5973 165.543L130.232 131.348L195.155 166.294C195.774 166.627 196.46 166.798 197.146 166.798C197.673 166.798 198.205 166.7 198.706 166.498C199.86 166.039 200.751 165.087 201.14 163.905L252.84 6.09357C252.879 5.97034 252.882 5.8415 252.91 5.71547C252.941 5.58663 252.966 5.46059 252.983 5.32895ZM217.844 16.0224L72.6085 90.801L17.091 60.9164L217.844 16.0224ZM209.119 29.9676L104.07 110.549C104.061 110.555 104.056 110.566 104.05 110.572C103.737 110.815 103.465 111.115 103.227 111.451C103.176 111.521 103.129 111.591 103.084 111.664C103.036 111.743 102.975 111.81 102.93 111.891C102.779 112.171 102.669 112.462 102.588 112.756C102.585 112.77 102.574 112.782 102.571 112.796L93.2784 147.545L77.6331 97.6657L209.119 29.9676ZM101.77 148.307L109.313 120.097L122.524 127.209L101.77 148.307ZM194.715 156.527L114.338 113.263L240.626 16.3893L194.715 156.527Z" />
  <path d="M37.0944 227.382C36.03 227.382 34.9657 226.979 34.1479 226.175C32.4926 224.548 32.4702 221.89 34.0975 220.234L74.1265 179.544C75.7538 177.886 78.4146 177.869 80.067 179.494C81.7223 181.121 81.7447 183.779 80.1174 185.434L40.0912 226.127C39.2678 226.965 38.1811 227.382 37.0944 227.382Z" />
  <path d="M103 210.888C101.936 210.888 100.871 210.485 100.054 209.681C98.3983 208.054 98.3758 205.396 100.003 203.74L140.029 163.053C141.659 161.398 144.317 161.378 145.97 163.003C147.625 164.63 147.648 167.288 146.02 168.943L105.997 209.633C105.173 210.468 104.087 210.888 103 210.888Z" />
  <path d="M24.5887 176.259C23.5244 176.259 22.4601 175.856 21.6423 175.052C19.987 173.425 19.9646 170.767 21.5919 169.111L50.8462 139.372C52.4735 137.717 55.1343 137.698 56.7867 139.322C58.442 140.949 58.4644 143.607 56.8372 145.263L27.5856 175.001C26.7622 175.839 25.6755 176.259 24.5887 176.259Z" />
</svg>
