<svg viewBox="0 0 20 28" fill="#828282" xmlns="http://www.w3.org/2000/svg">
  <path d="M19.363 19.0197C19.9205 17.8887 19.9569 16.5251 18.9925 15.6446C19.4279 14.3634 19.0693 12.7556 17.7749 12.28C18.0055 11.4907 18.0662 10.6031 17.6475 9.89387C17.2696 9.25372 16.4998 9.08657 15.803 9.10502C16.5606 7.47002 17.7063 5.42973 19.2161 3.96209L19.4284 3.75609L19.2499 3.52013C19.1279 3.35863 16.2181 -0.422592 12.5189 0.722042L12.2634 0.801057L12.2836 1.06741C12.2888 1.1347 12.7651 7.69013 11.3793 10.6141C11.2538 10.6812 11.129 10.7483 11.0055 10.8153C10.8031 10.1893 10.555 9.55914 10.2585 8.95524C9.65547 7.55815 8.72205 5.71627 7.45954 4.13814C8.0552 3.61477 7.75151 2.75516 7.52619 2.30213C8.31677 1.61487 9.48376 0.840347 10.8309 0.699466C10.9633 1.06936 11.272 1.72493 11.8245 1.91443C11.8039 1.42645 11.7824 1.12797 11.7811 1.11408L11.7409 0.581812L12.2508 0.423781C12.4488 0.362567 12.6489 0.316981 12.8504 0.279861L12.6418 0.21539C8.94216 -0.929026 6.0325 2.85198 5.9105 3.01348L5.73207 3.24944L5.94393 3.45566C7.55267 5.01968 8.74875 7.23427 9.50156 8.91551C7.24594 9.68786 6.4241 11.6357 5.69907 13.3543C5.19546 14.5484 4.7548 15.5903 3.93838 15.9887L3.91125 15.906L3.65944 15.1327L0 16.3249L3.52051 27.1307L7.18017 25.9385L6.96852 25.2888C10.2869 24.3258 13.7423 23.9518 17.0992 23.1517C18.1303 22.906 19.202 22.6635 19.7709 21.6986C20.255 20.8791 19.9016 19.7612 19.363 19.0197ZM1.99253 18.0648L1.64412 16.9952L2.713 16.6471L3.0614 17.7161L1.99253 18.0648ZM12.8771 7.14549C12.975 7.55337 13.3166 7.95561 13.8157 8.18701C14.5661 8.53455 15.3845 8.36349 15.643 7.80431C15.9022 7.24556 15.5037 6.51055 14.7535 6.16279C14.0104 5.81873 13.2018 5.98392 12.9344 6.52987C13.0583 5.01773 13.0533 3.52621 13.0219 2.47513C13.7753 2.47318 14.1732 1.64092 14.3291 1.2059C15.676 1.34678 16.843 2.12152 17.6338 2.80856C17.4083 3.26159 17.1046 4.12099 17.7005 4.64458C16.5174 6.1235 15.6244 7.83253 15.0205 9.19163C14.0816 9.35726 13.1604 9.72412 12.2782 10.1531C12.5745 9.26804 12.7627 8.21719 12.8771 7.14549ZM9.55106 9.02535C9.54932 9.02774 9.5478 9.02991 9.54606 9.0323L9.52067 8.95784C9.53087 8.98042 9.54129 9.00343 9.55106 9.02535ZM18.3306 21.427C17.4578 21.9675 16.1964 22.1171 15.2119 22.3166C12.4221 22.8823 9.36372 23.2535 6.62641 24.0497L4.35212 17.2438C5.62114 16.7152 6.39002 15.2337 6.94247 13.9236C7.56591 12.4456 8.21279 10.9211 9.82783 10.3087C10.0293 10.7973 10.1632 11.263 10.3251 11.8317C10.4111 12.1341 10.7584 12.2044 11.0057 12.0692C12.3092 11.3569 13.7219 10.5879 15.208 10.3319C15.2187 10.3356 15.2297 10.338 15.2401 10.3421C15.2427 10.3365 15.2451 10.3304 15.2473 10.3248C15.2723 10.3206 15.2968 10.3154 15.3218 10.3117C15.7718 10.2425 16.5011 10.1965 16.7304 10.7038C16.9021 11.0832 16.8417 11.5352 16.761 11.9289C16.7134 12.1603 16.6016 12.5085 16.5786 12.5652C16.4783 12.8116 16.5743 13.1762 16.8862 13.2134C18.079 13.3547 18.2494 14.7088 17.8001 15.6329C17.7185 15.8005 17.7367 16.0592 17.9028 16.1767C18.8466 16.8431 18.6901 17.8996 18.1657 18.8004C18.0932 18.9246 18.0936 19.1425 18.1913 19.2556C18.7083 19.8539 19.1911 20.8941 18.3306 21.427Z" />
  <path d="M10.4066 5.65647C9.65635 6.00422 9.2578 6.73924 9.51699 7.29799C9.77574 7.85695 10.5939 8.02822 11.3443 7.68069C11.4583 7.62794 11.5627 7.5652 11.6595 7.49639C11.7368 6.8786 11.7874 6.24148 11.8186 5.61957C11.4437 5.42442 10.9104 5.42311 10.4066 5.65647Z" />
</svg>
