<svg viewBox="0 0 20 20" fill="#828282" xmlns="http://www.w3.org/2000/svg">
  <path d="M8.55567 15.4422C8.47531 15.5017 8.38114 15.5439 8.27391 15.5439H6.30472C6.03777 15.5439 5.82212 15.3282 5.82212 15.062V13.0928C5.82212 12.8265 6.03777 12.6107 6.30472 12.6107H7.96753C7.99181 12.1708 8.06212 11.7397 8.185 11.326H6.30472C6.03777 11.326 5.82212 11.11 5.82212 10.8435V8.87475C5.82212 8.60809 6.03777 8.3923 6.30472 8.3923H8.27398C8.5396 8.3923 8.75489 8.60801 8.75489 8.87475V10.0505C8.98675 9.66752 9.26058 9.30682 9.5857 8.98212C10.6391 7.92893 12.0388 7.34865 13.5289 7.34865C13.9043 7.34865 14.274 7.38598 14.6334 7.45868L9.71195 3.2123C9.53138 3.05651 9.26275 3.05651 9.08254 3.2123L2.7283 8.69433C2.62192 8.78612 2.5603 8.91896 2.5603 9.05959V16.987C2.5603 17.2528 2.77602 17.4686 3.04297 17.4686H10.306C10.0526 17.288 9.80907 17.0899 9.58556 16.8657C9.16198 16.4426 8.82002 15.9608 8.55567 15.4422Z" />
  <path d="M19.7185 17.7514L18.3999 16.4317C18.1481 16.1798 17.7927 16.1001 17.4711 16.185L17.1117 15.8258C18.5791 14.0164 18.4724 11.3464 16.7897 9.66324C15.9186 8.79236 14.7605 8.3125 13.5287 8.3125C12.297 8.3125 11.1377 8.79236 10.2673 9.66324C9.39584 10.5347 8.91577 11.6924 8.91577 12.9237C8.91577 14.1557 9.39584 15.3134 10.2673 16.1843C11.1376 17.0563 12.297 17.5364 13.5287 17.5364C14.5974 17.5364 15.6112 17.1735 16.4303 16.507L16.7901 16.867C16.7054 17.1876 16.7845 17.5424 17.0358 17.7939L18.3544 19.1133C18.5423 19.3024 18.7892 19.3961 19.0362 19.3961C19.2828 19.3961 19.5297 19.3026 19.7177 19.114C20.0939 18.7382 20.0939 18.1279 19.7185 17.7514ZM10.9488 15.5032C10.2591 14.8139 9.88019 13.8981 9.88019 12.9237C9.88019 11.95 10.2591 11.0342 10.9488 10.3449C11.638 9.65629 12.5539 9.27657 13.5287 9.27657C14.5031 9.27657 15.4181 9.65636 16.1087 10.3449C17.5301 11.7668 17.5301 14.0802 16.1091 15.5021C16.1091 15.5023 16.1087 15.5023 16.1087 15.503C16.1087 15.5032 16.1087 15.5034 16.1078 15.5034C15.4177 16.1925 14.5027 16.5724 13.5287 16.5724C12.5543 16.5724 11.6381 16.1924 10.9488 15.5032Z" />
  <path d="M17.2025 8.94657C17.3839 9.10299 17.6078 9.17962 17.8305 9.17962C18.1013 9.17962 18.3708 9.06566 18.5609 8.84433C18.9081 8.44026 18.8626 7.8319 18.4589 7.48468L10.0252 0.233105C9.66408 -0.0777017 9.12983 -0.0777017 8.7692 0.233105L0.335878 7.48468C-0.0686124 7.8319 -0.113735 8.44019 0.233001 8.84433C0.58065 9.24797 1.18872 9.29268 1.59195 8.94657L9.3972 2.23486L17.2025 8.94657Z" />
</svg>
